<?xml version="1.0" standalone="no"?>
<!DOCTYPE svg PUBLIC "-//W3C//DTD SVG 20010904//EN"
 "http://www.w3.org/TR/2001/REC-SVG-20010904/DTD/svg10.dtd">
<svg version="1.0" xmlns="http://www.w3.org/2000/svg"
 width="16.000000pt" height="16.000000pt" viewBox="0 0 16.000000 16.000000"
 preserveAspectRatio="xMidYMid meet">
<metadata>
Created by potrace 1.11, written by Peter Selinger 2001-2013
</metadata>
<g transform="translate(0.000000,16.000000) scale(0.004624,-0.004624)"
fill="#000000" stroke="none">
<path d="M685 2683 c-238 -50 -443 -207 -548 -419 -69 -138 -92 -255 -84 -413
9 -177 69 -323 187 -459 54 -63 597 -612 605 -612 13 0 598 598 641 656 66 86
118 196 137 289 17 81 20 246 5 324 -12 70 -63 209 -87 241 -19 24 -19 24 -53
6 -44 -24 -75 -51 -122 -109 l-38 -47 23 -73 c32 -98 32 -233 0 -326 -36 -104
-83 -164 -300 -384 l-206 -208 -200 201 c-195 197 -241 251 -284 337 -79 158
-55 384 55 529 83 109 191 180 319 211 47 11 174 8 224 -4 l54 -14 31 38 c37
45 46 54 114 115 l53 47 -40 21 c-121 61 -335 85 -486 53z"/>
<path d="M1600 2690 c-19 -4 -50 -10 -68 -14 -57 -11 -145 -48 -216 -90 -166
-99 -291 -259 -352 -449 -33 -106 -42 -292 -18 -407 15 -75 96 -260 114 -260
10 0 137 140 162 179 16 25 16 30 -3 91 -36 115 -31 259 14 365 99 236 346
370 591 319 l69 -14 36 42 c49 57 79 87 125 125 22 18 38 34 35 36 -12 11
-126 51 -185 66 -72 19 -240 25 -304 11z"/>
<path d="M2445 2684 c-185 -40 -358 -148 -469 -293 -105 -137 -156 -279 -164
-452 -6 -153 13 -253 74 -376 25 -51 49 -93 53 -93 10 0 122 123 157 171 l24
34 -21 65 c-73 230 18 483 222 613 292 186 689 39 789 -292 28 -90 31 -222 7
-299 -37 -122 -74 -171 -316 -414 l-196 -198 -103 103 -102 102 -51 -55 c-28
-30 -69 -74 -91 -96 l-40 -42 192 -192 192 -192 30 29 c149 141 553 553 599
611 66 82 120 186 146 282 24 89 24 309 -1 400 -75 281 -296 501 -576 576 -88
23 -265 27 -355 8z"/>
<path d="M2367 2296 c-43 -25 -96 -74 -135 -124 l-25 -32 17 -55 c27 -83 31
-113 29 -201 -2 -99 -29 -184 -85 -268 -23 -34 -131 -152 -242 -264 l-200
-202 -103 102 -102 102 -90 -94 c-87 -91 -90 -95 -73 -114 27 -30 362 -366
366 -366 8 0 548 544 606 612 76 88 128 180 161 288 20 63 24 97 24 215 0 161
-14 226 -73 346 l-37 77 -38 -22z"/>
</g>
</svg>
